<svg width="771" height="271" viewBox="0 0 771 271" fill="none" xmlns="http://www.w3.org/2000/svg">
<g clip-path="url(#clip0)">
<circle cx="98.5" cy="123.5" r="5" stroke="#BBDAFF"/>
<circle cx="98.5" cy="123.5" r="2" stroke="#BBDAFF"/>
<rect x="98" width="1" height="119" fill="#BBDAFF"/>
<circle cx="113.5" cy="170.5" r="5" stroke="#BBDAFF"/>
<circle cx="113.5" cy="170.5" r="2" stroke="#BBDAFF"/>
<rect x="113" width="1" height="166" fill="#BBDAFF"/>
<circle cx="168.5" cy="195.5" r="5" stroke="#BBDAFF"/>
<circle cx="168.5" cy="195.5" r="2" stroke="#BBDAFF"/>
<rect x="168" width="1" height="191" fill="#BBDAFF"/>
<circle cx="218.5" cy="150.5" r="5" stroke="#BBDAFF"/>
<circle cx="218.5" cy="150.5" r="2" stroke="#BBDAFF"/>
<rect x="218" y="-45" width="1" height="191" fill="#BBDAFF"/>
<circle cx="184.5" cy="173.5" r="5" stroke="#BBDAFF"/>
<circle cx="184.5" cy="173.5" r="2" stroke="#BBDAFF"/>
<rect x="184" y="-22" width="1" height="191" fill="#BBDAFF"/>
<circle cx="202.5" cy="88.5" r="5" stroke="#BBDAFF"/>
<circle cx="202.5" cy="88.5" r="2" stroke="#BBDAFF"/>
<rect x="202" y="-107" width="1" height="191" fill="#BBDAFF"/>
<circle cx="65.5" cy="181.5" r="5" stroke="#BBDAFF"/>
<circle cx="65.5" cy="181.5" r="2" stroke="#BBDAFF"/>
<rect x="65" y="-63" width="1" height="239" fill="#BBDAFF"/>
<circle cx="81.5" cy="203.5" r="5" stroke="#BBDAFF"/>
<circle cx="81.5" cy="203.5" r="2" stroke="#BBDAFF"/>
<rect x="81" y="-92" width="1" height="290" fill="#BBDAFF"/>
<circle cx="155.5" cy="131.5" r="5" stroke="#BBDAFF"/>
<circle cx="155.5" cy="131.5" r="2" stroke="#BBDAFF"/>
<rect x="138" width="1" height="79" fill="#BBDAFF"/>
<rect x="155" y="78" width="1" height="49" fill="#BBDAFF"/>
<rect x="156" y="78" width="1" height="17" transform="rotate(90 156 78)" fill="#BBDAFF"/>
<circle cx="233.5" cy="112.5" r="5" stroke="#BBDAFF"/>
<circle cx="233.5" cy="112.5" r="2" stroke="#BBDAFF"/>
<rect x="249" y="-19" width="1" height="79" fill="#BBDAFF"/>
<rect x="233" y="59" width="1" height="49" fill="#BBDAFF"/>
<rect x="250" y="59" width="1" height="17" transform="rotate(90 250 59)" fill="#BBDAFF"/>
<circle cx="36.5" cy="161.5" r="5" stroke="#BBDAFF"/>
<circle cx="36.5" cy="161.5" r="2" stroke="#BBDAFF"/>
<rect x="52" y="-12" width="1" height="79" fill="#BBDAFF"/>
<rect x="36" y="66" width="1" height="91" fill="#BBDAFF"/>
<rect x="53" y="66" width="1" height="17" transform="rotate(90 53 66)" fill="#BBDAFF"/>
<circle cx="5.5" cy="93.5" r="5" stroke="#BBDAFF"/>
<circle cx="5.5" cy="93.5" r="2" stroke="#BBDAFF"/>
<rect x="34" width="1" height="53" fill="#BBDAFF"/>
<rect x="5" y="52" width="1" height="37" fill="#BBDAFF"/>
<rect x="35" y="52" width="1" height="30" transform="rotate(90 35 52)" fill="#BBDAFF"/>
<circle cx="605.5" cy="41.5" r="5" stroke="#BBDAFF"/>
<circle cx="605.5" cy="41.5" r="2" stroke="#BBDAFF"/>
<rect x="605" y="-82" width="1" height="119" fill="#BBDAFF"/>
<circle cx="620.5" cy="88.5" r="5" stroke="#BBDAFF"/>
<circle cx="620.5" cy="88.5" r="2" stroke="#BBDAFF"/>
<rect x="620" y="-82" width="1" height="166" fill="#BBDAFF"/>
<circle cx="672.5" cy="194.5" r="5" stroke="#BBDAFF"/>
<circle cx="672.5" cy="194.5" r="2" stroke="#BBDAFF"/>
<rect x="672" y="-1" width="1" height="191" fill="#BBDAFF"/>
<circle cx="725.5" cy="68.5" r="5" stroke="#BBDAFF"/>
<circle cx="725.5" cy="68.5" r="2" stroke="#BBDAFF"/>
<rect x="725" y="-127" width="1" height="191" fill="#BBDAFF"/>
<circle cx="711.5" cy="156.5" r="5" stroke="#BBDAFF"/>
<circle cx="711.5" cy="156.5" r="2" stroke="#BBDAFF"/>
<rect x="711" y="-39" width="1" height="191" fill="#BBDAFF"/>
<circle cx="754.5" cy="117.5" r="5" stroke="#BBDAFF"/>
<circle cx="754.5" cy="117.5" r="2" stroke="#BBDAFF"/>
<rect x="754" y="-78" width="1" height="191" fill="#BBDAFF"/>
<circle cx="568.5" cy="166.5" r="5" stroke="#BBDAFF"/>
<circle cx="568.5" cy="166.5" r="2" stroke="#BBDAFF"/>
<rect x="568" y="-78" width="1" height="239" fill="#BBDAFF"/>
<circle cx="524.5" cy="73.5" r="5" stroke="#BBDAFF"/>
<circle cx="524.5" cy="73.5" r="2" stroke="#BBDAFF"/>
<rect x="524" y="-171" width="1" height="239" fill="#BBDAFF"/>
<circle cx="550.5" cy="140.5" r="5" stroke="#BBDAFF"/>
<circle cx="550.5" cy="140.5" r="2" stroke="#BBDAFF"/>
<rect x="550" y="-104" width="1" height="239" fill="#BBDAFF"/>
<circle cx="588.5" cy="131.5" r="5" stroke="#BBDAFF"/>
<circle cx="588.5" cy="131.5" r="2" stroke="#BBDAFF"/>
<rect x="588" y="-164" width="1" height="290" fill="#BBDAFF"/>
<circle cx="652.5" cy="126.5" r="5" stroke="#BBDAFF"/>
<circle cx="652.5" cy="126.5" r="2" stroke="#BBDAFF"/>
<rect x="635" y="-5" width="1" height="79" fill="#BBDAFF"/>
<rect x="652" y="73" width="1" height="49" fill="#BBDAFF"/>
<rect x="653" y="73" width="1" height="17" transform="rotate(90 653 73)" fill="#BBDAFF"/>
<circle cx="740.5" cy="30.5" r="5" stroke="#BBDAFF"/>
<circle cx="740.5" cy="30.5" r="2" stroke="#BBDAFF"/>
<rect x="740" y="-23" width="1" height="49" fill="#BBDAFF"/>
<circle cx="684.5" cy="126.5" r="5" stroke="#BBDAFF"/>
<circle cx="684.5" cy="126.5" r="2" stroke="#BBDAFF"/>
<rect x="700" y="-47" width="1" height="79" fill="#BBDAFF"/>
<rect x="684" y="31" width="1" height="91" fill="#BBDAFF"/>
<rect x="701" y="31" width="1" height="17" transform="rotate(90 701 31)" fill="#BBDAFF"/>
</g>
<defs>
<clipPath id="clip0">
<rect width="771" height="271" fill="white"/>
</clipPath>
</defs>
</svg>
