<svg width="53" height="54" viewBox="0 0 53 54" fill="none" xmlns="http://www.w3.org/2000/svg">
<g clip-path="url(#clip0)">
<path d="M34.8477 12.8667L19.2764 12.8667C16.6965 12.8667 14.605 14.9984 14.605 17.6279L14.605 33.4987C14.605 36.1282 16.6965 38.2599 19.2764 38.2599L34.8477 38.2599C37.4276 38.2599 39.5191 36.1282 39.5191 33.4987L39.5191 17.6279C39.5191 14.9984 37.4276 12.8667 34.8477 12.8667Z" fill="#FFA500"/>
<path d="M20.8335 35.0857C22.5535 35.0857 23.9478 33.6646 23.9478 31.9116C23.9478 30.1585 22.5535 28.7374 20.8335 28.7374C19.1136 28.7374 17.7193 30.1585 17.7193 31.9116C17.7193 33.6646 19.1136 35.0857 20.8335 35.0857Z" fill="white"/>
<path d="M17.7193 25.5633C20.1971 25.5633 22.5735 26.5665 24.3256 28.3523C26.0777 30.1381 27.062 32.5602 27.062 35.0857L30.1763 35.0857C30.1763 31.7184 28.8639 28.489 26.5277 26.1079C24.1916 23.7268 21.0231 22.3891 17.7193 22.3891L17.7193 25.5633Z" fill="white"/>
<path d="M17.7193 19.215C19.7641 19.215 21.7889 19.6255 23.6781 20.4231C25.5673 21.2207 27.2839 22.3897 28.7298 23.8634C30.1758 25.3372 31.3227 27.0867 32.1053 29.0123C32.8878 30.9378 33.2906 33.0016 33.2906 35.0857L36.4048 35.0857C36.4048 30.0347 34.4362 25.1906 30.932 21.619C27.4277 18.0473 22.675 16.0408 17.7193 16.0408L17.7193 19.215Z" fill="white"/>
<path d="M22.5674 49.191C16.5829 48.06 11.2343 44.7405 7.56442 39.88C3.89458 35.0194 2.16668 28.9662 2.71766 22.9008C3.26865 16.8353 6.05902 11.1926 10.5446 7.07282C15.0302 2.95308 20.8895 0.651753 26.9798 0.617596C33.0701 0.58344 38.9548 2.81891 43.4863 6.88808C48.0179 10.9572 50.8714 16.5684 51.4903 22.6272C52.1093 28.6861 50.4494 34.7583 46.8343 39.6597C43.2192 44.5612 37.9081 47.9404 31.9368 49.1385" stroke="#BBDAFF"/>
<circle cx="27.2659" cy="48.6027" r="5" transform="rotate(128.128 27.2659 48.6027)" stroke="#BBDAFF"/>
<circle cx="27.2659" cy="48.6027" r="2" transform="rotate(128.128 27.2659 48.6027)" stroke="#BBDAFF"/>
</g>
<defs>
<clipPath id="clip0">
<rect width="53" height="54" fill="white"/>
</clipPath>
</defs>
</svg>
