<svg width="338" height="338" viewBox="0 0 338 338" fill="none" xmlns="http://www.w3.org/2000/svg">
<path d="M121.248 321.168C122.592 321.168 123.744 320.272 123.744 318.8C123.744 317.456 122.592 316.24 121.248 316.24H103.52V278.224C103.52 276.752 102.304 275.728 101.024 275.728C99.552 275.728 98.592 276.752 98.592 278.224V321.168H121.248ZM162.183 309.84V288.272C162.183 284.368 159.495 276.304 149.575 276.304C139.463 276.304 136.903 284.368 136.903 288.208V309.776C136.903 313.872 139.399 321.808 149.319 321.808C159.431 321.808 162.183 313.872 162.183 309.84ZM157.191 309.776C157.191 315.856 151.943 316.88 149.575 316.88C147.207 316.88 141.831 315.92 141.831 309.776V288.336C141.831 282.192 147.207 281.168 149.575 281.168C151.943 281.168 157.255 282.256 157.255 288.336L157.191 309.776ZM200.558 309.264V288.528C200.558 284.624 198.51 276.688 188.526 276.688H175.278V321.232H188.782C198.574 321.232 200.558 313.36 200.558 309.264ZM195.566 309.2C195.566 315.28 191.086 316.304 188.654 316.304H180.206V281.616H188.526C190.894 281.616 195.63 282.704 195.63 288.72L195.566 309.2ZM218.709 300.176H235.029C236.309 300.176 237.461 298.896 237.461 297.744C237.461 296.464 236.309 295.312 235.029 295.312H218.645V281.616H236.437C237.717 281.616 238.869 280.464 238.869 279.248C238.869 277.968 237.717 276.752 236.437 276.752H213.717V321.232H236.437C237.717 321.232 238.869 320.144 238.869 318.864C238.869 317.584 237.717 316.368 236.437 316.368H218.709V300.176Z" fill="#FF6B88"/>
<g filter="url(#filter0_d)">
<path fill-rule="evenodd" clip-rule="evenodd" d="M169 242C231.96 242 283 190.96 283 128C283 65.0395 231.96 14 169 14C106.04 14 55 65.0395 55 128C55 190.96 106.04 242 169 242Z" fill="url(#paint0_linear)"/>
<path fill-rule="evenodd" clip-rule="evenodd" d="M169 242C231.96 242 283 190.96 283 128C283 65.0395 231.96 14 169 14C106.04 14 55 65.0395 55 128C55 190.96 106.04 242 169 242Z" stroke="#888888"/>
</g>
<circle cx="169.425" cy="127.575" r="100.813" fill="url(#paint1_linear)"/>
<path d="M165.248 59.4903C167.654 58.5161 170.346 58.5161 172.752 59.4903L215.83 76.9284C218.288 77.9234 220.251 79.8539 221.285 82.2953L239.003 124.098C240.06 126.592 240.06 129.408 239.003 131.902L221.285 173.705C220.251 176.146 218.288 178.077 215.83 179.072L172.752 196.51C170.346 197.484 167.654 197.484 165.248 196.51L122.17 179.072C119.712 178.077 117.749 176.146 116.715 173.705L98.9969 131.902C97.9397 129.408 97.9397 126.592 98.9969 124.098L116.715 82.2953C117.749 79.8539 119.712 77.9234 122.17 76.9284L165.248 59.4903Z" fill="url(#paint2_linear)"/>
<g filter="url(#filter1_i)">
<path d="M165.173 62.7883C167.623 61.7733 170.377 61.7733 172.827 62.7883L212.406 79.1824C214.856 80.1973 216.803 82.144 217.818 84.5943L234.212 124.173C235.227 126.623 235.227 129.377 234.212 131.827L217.818 171.406C216.803 173.856 214.856 175.803 212.406 176.818L172.827 193.212C170.377 194.227 167.623 194.227 165.173 193.212L125.594 176.818C123.144 175.803 121.197 173.856 120.182 171.406L103.788 131.827C102.773 129.377 102.773 126.623 103.788 124.173L120.182 84.5943C121.197 82.144 123.144 80.1973 125.594 79.1823L165.173 62.7883Z" fill="url(#paint3_linear)"/>
</g>
<defs>
<filter id="filter0_d" x="50.5" y="13.5" width="237" height="237" filterUnits="userSpaceOnUse" color-interpolation-filters="sRGB">
<feFlood flood-opacity="0" result="BackgroundImageFix"/>
<feColorMatrix in="SourceAlpha" type="matrix" values="0 0 0 0 0 0 0 0 0 0 0 0 0 0 0 0 0 0 127 0"/>
<feOffset dy="4"/>
<feGaussianBlur stdDeviation="2"/>
<feColorMatrix type="matrix" values="0 0 0 0 0 0 0 0 0 0 0 0 0 0 0 0 0 0 0.25 0"/>
<feBlend mode="normal" in2="BackgroundImageFix" result="effect1_dropShadow"/>
<feBlend mode="normal" in="SourceGraphic" in2="effect1_dropShadow" result="shape"/>
</filter>
<filter id="filter1_i" x="103.027" y="62.027" width="131.946" height="131.946" filterUnits="userSpaceOnUse" color-interpolation-filters="sRGB">
<feFlood flood-opacity="0" result="BackgroundImageFix"/>
<feBlend mode="normal" in="SourceGraphic" in2="BackgroundImageFix" result="shape"/>
<feColorMatrix in="SourceAlpha" type="matrix" values="0 0 0 0 0 0 0 0 0 0 0 0 0 0 0 0 0 0 127 0" result="hardAlpha"/>
<feOffset dy="5"/>
<feComposite in2="hardAlpha" operator="arithmetic" k2="-1" k3="1"/>
<feColorMatrix type="matrix" values="0 0 0 0 0.7375 0 0 0 0 0 0 0 0 0 0 0 0 0 0.15 0"/>
<feBlend mode="normal" in2="shape" result="effect1_innerShadow"/>
</filter>
<linearGradient id="paint0_linear" x1="124.529" y1="20.2971" x2="266.975" y2="332.288" gradientUnits="userSpaceOnUse">
<stop stop-color="#FF9A8B"/>
<stop offset="0.375795" stop-color="#FF6A88"/>
<stop offset="1" stop-color="#FF99AC"/>
</linearGradient>
<linearGradient id="paint1_linear" x1="68.6119" y1="26.7612" x2="68.6119" y2="228.388" gradientUnits="userSpaceOnUse">
<stop stop-color="#FDFDFD"/>
<stop offset="1" stop-color="#E0E3E7"/>
</linearGradient>
<linearGradient id="paint2_linear" x1="240.657" y1="198.029" x2="240.657" y2="57.9714" gradientUnits="userSpaceOnUse">
<stop stop-color="#EDEEF3"/>
<stop offset="1" stop-color="#D5D7E3"/>
</linearGradient>
<linearGradient id="paint3_linear" x1="142.943" y1="64.8929" x2="226.407" y2="247.7" gradientUnits="userSpaceOnUse">
<stop stop-color="#FF9A8B"/>
<stop offset="0.375795" stop-color="#FF6A88"/>
<stop offset="1" stop-color="#FF99AC"/>
</linearGradient>
</defs>
</svg>
