<svg width="932" height="256" viewBox="0 0 932 256" fill="none" xmlns="http://www.w3.org/2000/svg">
<g clip-path="url(#clip0)">
<path d="M426.82 224.62C432.28 224.62 436.96 220.98 436.96 215C436.96 209.54 432.28 204.6 426.82 204.6H354.8V50.16C354.8 44.18 349.86 40.02 344.66 40.02C338.68 40.02 334.78 44.18 334.78 50.16V224.62H426.82ZM593.118 178.6V90.98C593.118 75.12 582.198 42.36 541.898 42.36C500.818 42.36 490.418 75.12 490.418 90.72V178.34C490.418 194.98 500.558 227.22 540.858 227.22C581.938 227.22 593.118 194.98 593.118 178.6ZM572.838 178.34C572.838 203.04 551.518 207.2 541.898 207.2C532.278 207.2 510.438 203.3 510.438 178.34V91.24C510.438 66.28 532.278 62.12 541.898 62.12C551.518 62.12 573.098 66.54 573.098 91.24L572.838 178.34ZM749.017 176.26V92.02C749.017 76.16 740.697 43.92 700.137 43.92H646.317V224.88H701.177C740.957 224.88 749.017 192.9 749.017 176.26ZM728.737 176C728.737 200.7 710.537 204.86 700.657 204.86H666.337V63.94H700.137C709.757 63.94 728.997 68.36 728.997 92.8L728.737 176ZM822.755 139.34H889.055C894.255 139.34 898.935 134.14 898.935 129.46C898.935 124.26 894.255 119.58 889.055 119.58H822.495V63.94H894.775C899.975 63.94 904.655 59.26 904.655 54.32C904.655 49.12 899.975 44.18 894.775 44.18H802.475V224.88H894.775C899.975 224.88 904.655 220.46 904.655 215.26C904.655 210.06 899.975 205.12 894.775 205.12H822.755V139.34Z" fill="#FF6B88"/>
<g filter="url(#filter0_d)">
<path fill-rule="evenodd" clip-rule="evenodd" d="M128 242C190.96 242 242 190.96 242 128C242 65.0395 190.96 14 128 14C65.0395 14 14 65.0395 14 128C14 190.96 65.0395 242 128 242Z" fill="url(#paint0_linear)"/>
<path fill-rule="evenodd" clip-rule="evenodd" d="M128 242C190.96 242 242 190.96 242 128C242 65.0395 190.96 14 128 14C65.0395 14 14 65.0395 14 128C14 190.96 65.0395 242 128 242Z" stroke="#888888"/>
</g>
<circle cx="128.425" cy="127.575" r="100.813" fill="url(#paint1_linear)"/>
<path d="M124.248 59.4903C126.654 58.5161 129.346 58.5161 131.752 59.4903L174.83 76.9284C177.288 77.9234 179.251 79.8539 180.285 82.2953L198.003 124.098C199.06 126.592 199.06 129.408 198.003 131.902L180.285 173.705C179.251 176.146 177.288 178.077 174.83 179.072L131.752 196.51C129.346 197.484 126.654 197.484 124.248 196.51L81.1695 179.072C78.7116 178.077 76.7494 176.146 75.7146 173.705L57.9969 131.902C56.9397 129.408 56.9397 126.592 57.9969 124.098L75.7146 82.2953C76.7494 79.8539 78.7116 77.9234 81.1695 76.9284L124.248 59.4903Z" fill="url(#paint2_linear)"/>
<g filter="url(#filter1_i)">
<path d="M124.173 62.7883C126.623 61.7733 129.377 61.7733 131.827 62.7883L171.406 79.1823C173.856 80.1973 175.803 82.144 176.818 84.5943L193.212 124.173C194.227 126.623 194.227 129.377 193.212 131.827L176.818 171.406C175.803 173.856 173.856 175.803 171.406 176.818L131.827 193.212C129.377 194.227 126.623 194.227 124.173 193.212L84.5943 176.818C82.144 175.803 80.1973 173.856 79.1823 171.406L62.7883 131.827C61.7733 129.377 61.7733 126.623 62.7883 124.173L79.1823 84.5943C80.1973 82.144 82.144 80.1973 84.5943 79.1823L124.173 62.7883Z" fill="url(#paint3_linear)"/>
</g>
</g>
<defs>
<filter id="filter0_d" x="9.5" y="13.5" width="237" height="237" filterUnits="userSpaceOnUse" color-interpolation-filters="sRGB">
<feFlood flood-opacity="0" result="BackgroundImageFix"/>
<feColorMatrix in="SourceAlpha" type="matrix" values="0 0 0 0 0 0 0 0 0 0 0 0 0 0 0 0 0 0 127 0"/>
<feOffset dy="4"/>
<feGaussianBlur stdDeviation="2"/>
<feColorMatrix type="matrix" values="0 0 0 0 0 0 0 0 0 0 0 0 0 0 0 0 0 0 0.25 0"/>
<feBlend mode="normal" in2="BackgroundImageFix" result="effect1_dropShadow"/>
<feBlend mode="normal" in="SourceGraphic" in2="effect1_dropShadow" result="shape"/>
</filter>
<filter id="filter1_i" x="62.027" y="62.027" width="131.946" height="131.946" filterUnits="userSpaceOnUse" color-interpolation-filters="sRGB">
<feFlood flood-opacity="0" result="BackgroundImageFix"/>
<feBlend mode="normal" in="SourceGraphic" in2="BackgroundImageFix" result="shape"/>
<feColorMatrix in="SourceAlpha" type="matrix" values="0 0 0 0 0 0 0 0 0 0 0 0 0 0 0 0 0 0 127 0" result="hardAlpha"/>
<feOffset dy="5"/>
<feComposite in2="hardAlpha" operator="arithmetic" k2="-1" k3="1"/>
<feColorMatrix type="matrix" values="0 0 0 0 0.7375 0 0 0 0 0 0 0 0 0 0 0 0 0 0.15 0"/>
<feBlend mode="normal" in2="shape" result="effect1_innerShadow"/>
</filter>
<linearGradient id="paint0_linear" x1="83.5291" y1="20.2971" x2="225.975" y2="332.288" gradientUnits="userSpaceOnUse">
<stop stop-color="#FF9A8B"/>
<stop offset="0.375795" stop-color="#FF6A88"/>
<stop offset="1" stop-color="#FF99AC"/>
</linearGradient>
<linearGradient id="paint1_linear" x1="27.6119" y1="26.7612" x2="27.6119" y2="228.388" gradientUnits="userSpaceOnUse">
<stop stop-color="#FDFDFD"/>
<stop offset="1" stop-color="#E0E3E7"/>
</linearGradient>
<linearGradient id="paint2_linear" x1="199.657" y1="198.029" x2="199.657" y2="57.9714" gradientUnits="userSpaceOnUse">
<stop stop-color="#EDEEF3"/>
<stop offset="1" stop-color="#D5D7E3"/>
</linearGradient>
<linearGradient id="paint3_linear" x1="101.943" y1="64.8929" x2="185.407" y2="247.7" gradientUnits="userSpaceOnUse">
<stop stop-color="#FF9A8B"/>
<stop offset="0.375795" stop-color="#FF6A88"/>
<stop offset="1" stop-color="#FF99AC"/>
</linearGradient>
<clipPath id="clip0">
<rect width="932" height="256" fill="white"/>
</clipPath>
</defs>
</svg>
